<?xml version="1.0" encoding="UTF-8" standalone="no"?>
<!-- Created with Inkscape (http://www.inkscape.org/) -->

<svg
   xmlns:dc="http://purl.org/dc/elements/1.1/"
   xmlns:cc="http://creativecommons.org/ns#"
   xmlns:rdf="http://www.w3.org/1999/02/22-rdf-syntax-ns#"
   xmlns:svg="http://www.w3.org/2000/svg"
   xmlns="http://www.w3.org/2000/svg"
   xmlns:sodipodi="http://sodipodi.sourceforge.net/DTD/sodipodi-0.dtd"
   xmlns:inkscape="http://www.inkscape.org/namespaces/inkscape"
   width="210mm"
   height="297mm"
   viewBox="0 0 210 297"
   version="1.1"
   id="svg439"
   sodipodi:docname="Stork.svg"
   inkscape:version="0.92.2 (5c3e80d, 2017-08-06)">
  <defs
     id="defs433" />
  <sodipodi:namedview
     id="base"
     pagecolor="#ffffff"
     bordercolor="#666666"
     borderopacity="1.0"
     inkscape:pageopacity="0.0"
     inkscape:pageshadow="2"
     inkscape:zoom="0.35"
     inkscape:cx="-140"
     inkscape:cy="607.86332"
     inkscape:document-units="mm"
     inkscape:current-layer="layer1"
     showgrid="false"
     inkscape:window-width="1853"
     inkscape:window-height="1025"
     inkscape:window-x="67"
     inkscape:window-y="27"
     inkscape:window-maximized="1" />
  <metadata
     id="metadata436">
    <rdf:RDF>
      <cc:Work
         rdf:about="">
        <dc:format>image/svg+xml</dc:format>
        <dc:type
           rdf:resource="http://purl.org/dc/dcmitype/StillImage" />
        <dc:title></dc:title>
      </cc:Work>
    </rdf:RDF>
  </metadata>
  <g
     inkscape:label="Ebene 1"
     inkscape:groupmode="layer"
     id="layer1">
    <path
       d="m 117.3792,165.5508 2.4261,30.18941 0.009,0.0961 -0.009,0.0961 -3.97992,50.17856 4.76216,4.91391 c 0.47029,0.48442 0.46047,1.2614 -0.0239,1.73262 -0.48522,0.47207 -1.26149,0.4622 -1.73306,-0.0238 l -3.26382,-3.36672 -0.43999,5.55741 c -0.0542,0.67665 -0.6444,1.18141 -1.32038,1.12933 -0.6747,-0.053 -1.17997,-0.64491 -1.12706,-1.32157 l 0.26075,-3.28466 -13.058732,4.11933 c -0.64782,0.20107 -1.33489,-0.15904 -1.5359,-0.8075 -0.20185,-0.64625 0.15919,-1.33495 0.80573,-1.53619 l 1.708292,-0.53898 c -0.30129,-0.22693 -0.4929,-0.59088 -0.48607,-0.99752 0.008,-0.67666 0.56631,-1.21529 1.24143,-1.20631 l 5.92424,0.097 5.61053,-1.76861 4.2027,-52.97099 -2.4197,-30.09459 c -0.0529,-0.67581 0.45151,-1.26788 1.12749,-1.32043 0.67598,-0.053 1.26703,0.45197 1.3191,1.1282 z m -35.553042,85.99826 -5.66646,1.03325 c -0.66446,0.11878 -1.10657,0.75576 -0.98836,1.42255 0.11819,0.66516 0.75535,1.10819 1.42066,0.98934 l 0.32861,-0.0611 -1.15309,0.79547 c -0.5565,0.38497 -0.69648,1.14869 -0.31196,1.70539 0.38493,0.55701 1.14797,0.697 1.70275,0.31219 l 11.25313,-7.76285 1.05622,6.01173 c 0.11564,0.66897 0.75195,1.11585 1.41981,0.99838 0.6683,-0.11612 1.11512,-0.75355 0.99733,-1.4209 l -1.33147,-7.58962 0.67384,-1.99162 4.08832,7.59754 c 0.3205,0.59673 1.06519,0.82015 1.66137,0.49942 0.59532,-0.32086 0.81936,-1.06543 0.49888,-1.66131 l -5.17315,-9.61161 15.655132,-46.23702 0.0665,-0.1965 -0.005,-0.22128 -0.69305,-34.70091 c -0.0137,-0.67622 -0.57228,-1.21405 -1.24826,-1.20081 -0.6747,0.0128 -1.21199,0.57244 -1.19833,1.24823 l 0.68878,34.48048 -17.310922,51.12433 -6.43207,4.43717"
       style="fill:#ed1e24;fill-opacity:1;fill-rule:evenodd;stroke:none;stroke-width:0.04269693"
       id="path18"
       inkscape:connector-curvature="0" />
    <path
       d="m 84.650438,52.109015 c 1.36434,14.032091 -12.17833,35.873088 4.09174,42.097148 -0.7575,3.954002 -1.51542,7.908427 -2.2712,11.862857 -6.44145,-3.57167 -12.88078,-7.143353 -19.32094,-10.715881 -0.16773,-10.726557 5.38395,-24.055935 -0.50401,-32.180522 6.00104,-3.687443 12.00251,-7.37531 18.00441,-11.063602"
       style="fill:#e1e0df;fill-opacity:1;fill-rule:evenodd;stroke:none;stroke-width:0.04269693"
       id="path20"
       inkscape:connector-curvature="0" />
    <path
       d="M 170.11001,180.02375 C 164.79391,95.2378 96.385368,90.610555 67.150038,95.353139 c 3.25102,56.076691 22.53014,76.713901 102.959972,84.670611"
       style="fill:#f3f3f3;fill-opacity:1;fill-rule:evenodd;stroke:none;stroke-width:0.04269693"
       id="path22"
       inkscape:connector-curvature="0" />
    <path
       d="m 170.00375,178.63411 c -1.42153,-19.84562 -6.33861,-35.2306 -13.40355,-47.08705 -18.604,-19.67818 -45.38548,-23.02516 -60.334322,-20.60005 -1.87815,41.55292 15.325662,61.18753 73.737872,67.6871"
       style="fill:#ededed;fill-opacity:1;fill-rule:evenodd;stroke:none;stroke-width:0.04269693"
       id="path24"
       inkscape:connector-curvature="0" />
    <path
       d="m 170.11001,180.02375 c -0.57313,-9.11609 -1.87773,-17.30004 -3.78063,-24.65102 -29.93992,-3.35038 -87.266032,2.32259 -99.179342,-60.019591 3.25102,56.076691 22.53014,76.713901 102.959972,84.670611"
       style="fill:#e1e0df;fill-opacity:1;fill-rule:evenodd;stroke:none;stroke-width:0.04269693"
       id="path26"
       inkscape:connector-curvature="0" />
    <path
       d="m 170.01527,178.6354 c -0.61154,-8.56117 -1.88029,-16.28676 -3.68589,-23.26267 -17.45261,-1.95308 -44.2085,-0.84581 -65.85227,-11.92566 8.37764,20.80594 27.55263,30.51794 69.53816,35.18833"
       style="fill:#cdccca;fill-opacity:1;fill-rule:evenodd;stroke:none;stroke-width:0.04269693"
       id="path28"
       inkscape:connector-curvature="0" />
    <path
       d="m 176.00052,176.51871 c -4.11521,-65.6614 -57.09354,-69.24419 -79.734642,-65.5717 2.51872,43.42698 17.447912,59.40915 79.734642,65.5717"
       style="fill:#e8e8e7;fill-opacity:1;fill-rule:evenodd;stroke:none;stroke-width:0.04269693"
       id="path30"
       inkscape:connector-curvature="0" />
    <path
       d="m 176.00052,176.51871 c -2.75215,-43.90756 -27.35292,-60.0542 -50.12163,-64.83608 15.6948,8.307 23.62777,19.25099 27.53686,34.84487 -14.41753,-6.63074 -26.05858,-8.38475 -44.32159,-5.71442 27.65634,4.41065 50.941,14.93643 66.90636,35.70563"
       style="fill:#100f0d;fill-opacity:1;fill-rule:evenodd;stroke:none;stroke-width:0.04269693"
       id="path32"
       inkscape:connector-curvature="0" />
    <path
       d="m 72.257868,64.514828 c -6.82596,0 -12.39384,-5.573027 -12.39384,-12.405813 0,-6.832362 5.56788,-12.405812 12.39384,-12.405812 6.82596,0 12.39257,5.57345 12.39257,12.405812 0,6.832786 -5.56661,12.405813 -12.39257,12.405813"
       style="fill:#f3f3f3;fill-opacity:1;fill-rule:evenodd;stroke:none;stroke-width:0.04269693"
       id="path34"
       inkscape:connector-curvature="0" />
    <path
       d="m 60.161478,54.81906 -23.09048,31.990432 28.51967,-24.240914 c -0.59789,-1.954786 -0.536,-3.877968 0.0802,-5.775514 -2.4308,0.206762 -4.35164,-0.330204 -5.50942,-1.974004"
       style="fill:#ed1e24;fill-opacity:1;fill-rule:evenodd;stroke:none;stroke-width:0.04269693"
       id="path36"
       inkscape:connector-curvature="0" />
    <path
       d="m 64.845118,55.687949 c 1.8133,-5.32227 3.63127,-7.027161 8.62346,-6.246269 -1.44329,0.484426 -1.63149,2.411446 -2.91815,3.363634 -1.51243,1.119644 -4.11223,1.339655 -5.70531,2.882635"
       style="fill:#100f0d;fill-opacity:1;fill-rule:evenodd;stroke:none;stroke-width:0.04269693"
       id="path38"
       inkscape:connector-curvature="0" />
  </g>
</svg>
