<?xml version="1.0" encoding="UTF-8"?>
<svg viewBox="0 0 178.80327 115.98431" xmlns="http://www.w3.org/2000/svg">
 <defs>
  <filter id="g">
   <feGaussianBlur stdDeviation="2.8643"/>
  </filter>
  <filter id="f">
   <feGaussianBlur stdDeviation="1.181"/>
  </filter>
  <filter id="a" x="-.11369" y="-.06661" width="1.2274" height="1.1332">
   <feGaussianBlur stdDeviation="1.2256"/>
  </filter>
  <linearGradient id="e" x1="140.89" x2="116.8" y1="126.13" y2="144.2" gradientUnits="userSpaceOnUse">
   <stop stop-color="#fff" offset="0"/>
   <stop stop-color="#fff" stop-opacity="0" offset="1"/>
  </linearGradient>
  <linearGradient id="d" x1="364.77" x2="369.23" gradientUnits="userSpaceOnUse">
   <stop stop-color="#ccc" offset="0"/>
   <stop stop-color="#fff" offset=".5476"/>
   <stop stop-color="#999" offset="1"/>
  </linearGradient>
  <radialGradient id="c" cx="98.065" cy="188.78" r="40.425" gradientTransform="matrix(1.0858 -.47136 .67308 1.5505 -135.48 -58.605)" gradientUnits="userSpaceOnUse">
   <stop stop-color="#e6e6e6" offset="0"/>
   <stop stop-color="#fff" offset=".5829"/>
   <stop stop-color="#f9f9f9" offset="1"/>
  </radialGradient>
  <radialGradient id="b" cx="92.687" cy="186.65" r="39.516" gradientTransform="matrix(1.316 -.60685 .66691 1.4462 -154.19 -27.123)" gradientUnits="userSpaceOnUse">
   <stop offset="0"/>
   <stop stop-color="#4d4d4d" offset=".5"/>
   <stop stop-color="#333" offset="1"/>
  </radialGradient>
 </defs>
 <g transform="matrix(.67119 0 0 .67119 -189.04 230.02)">
  <path d="m481.66-328.38-67.312 86.312-66.312-85.062-4.3438 4.25 1.0938 1.4062c-2.5358 2.1762-11.961 10.483-15.75 16.594-4.7032 7.585-4.3549 18.321-9.4375 25.594-4.4384 6.3506-12.225 8.7408-17.406 14.344-2.4072 2.6031-6.2188 8.8125-6.2188 8.8125l37.062 54.156 0.5-0.59375 0.1875 0.28125s3.3032-3.9614 7.4375-8.4375l-0.1875-0.21875c2.7884-2.9971 5.8553-6.1412 8.625-8.5l0.15625 0.1875c0.99309-0.86965 1.9279-1.6729 2.8125-2.3125 2.3759-1.718 5.0206-2.8893 7.6875-4 1.4436-0.59321 2.8914-1.1826 4.3125-1.8125 0.24574-0.10564 0.50575-0.2041 0.75-0.3125 0.12414-0.0551 0.25074-0.102 0.375-0.15625l0.15625-0.0625c5.5108-2.3087 11.28-3.9105 16.688-6.4688l0.21875-0.0937 0.0937-0.0312c1.0478-0.48092 2.0782-0.99726 3.0938-1.5625 0.71608-0.39859 1.5221-0.91345 2.3438-1.4375l0.15625-0.25c1.3264-0.87287 2.7233-1.8318 4.125-2.8438l0.0937 0.125c3.7621-2.689 7.4749-5.5364 9.625-7.25l8.25 10.562-36.969 47.438 4.3125 4.2188 36.469-46.75 37.469 48.031 4.3438-4.2188-38-48.719 9.25-11.875c2.1483 1.7125 5.856 4.6186 9.625 7.3125l0.0937-0.125c1.3956 1.0075 2.8039 1.9428 4.125 2.8125l0.0312 0.0312 0.125 0.25c0.82166 0.52405 1.6277 1.0389 2.3438 1.4375 1.0116 0.56309 2.05 1.0208 3.0938 1.5 0.0338 0.0163 0.0599 0.0463 0.0937 0.0625l0.28125 0.125c4.9581 2.3378 10.227 3.8849 15.312 5.9062 0.61535 0.25295 1.2319 0.50967 1.8438 0.78125 0.14164 0.0629 0.29115 0.099 0.4375 0.15625l0.28125 0.125h0.0312c1.4235 0.63098 2.8665 1.2495 4.3125 1.8438 2.6669 1.1107 5.3116 2.282 7.6875 4 0.88457 0.63962 1.8194 1.4116 2.8125 2.2812l0.125-0.1875c2.778 2.3617 5.8565 5.522 8.6562 8.5312l-0.1875 0.21875c4.1343 4.4761 7.4375 8.4375 7.4375 8.4375l0.1875-0.28125c0.0883 0.10567 0.5 0.5625 0.5 0.5625l37.062-54.125s-3.8115-6.2407-6.2188-8.8438c-5.1813-5.6029-12.968-7.9619-17.406-14.312-5.0826-7.2725-4.7342-18.04-9.4375-25.625-3.7988-6.1264-13.277-14.414-15.781-16.562l1.125-1.4375-4.3438-4.2188z" filter="url(#g)" opacity=".5"/>
  <g transform="matrix(-.54568 1.3065 1.1683 .61023 227.39 -491.33)">
   <path d="m67.287 132.82s10.654-5.6909 16.505-6.6914c6.3094-1.0788 12.945 2.3292 19.182 0.89219 5.4469-1.2549 9.5002-6.0334 14.721-8.0297 2.4256-0.92749 7.5836-1.7844 7.5836-1.7844l21.859 41.933s-12.698 4.0787-18.29 7.5836c-3.0344 1.9018-5.4242 4.6808-8.0297 7.1375-4.131 3.8952-7.6012 8.5098-12.045 12.045-4.3912 3.4933-14.275 8.9219-14.275 8.9219z" filter="url(#f)" opacity=".3"/>
   <path d="m67.287 132.82s10.654-5.6909 16.505-6.6914c6.3094-1.0788 12.945 2.3292 19.182 0.89219 5.4469-1.2549 9.5002-6.0334 14.721-8.0297 2.4256-0.92749 7.5836-1.7844 7.5836-1.7844l21.859 41.933s-12.698 4.0787-18.29 7.5836c-3.0344 1.9018-5.4242 4.6808-8.0297 7.1375-4.131 3.8952-7.6012 8.5098-12.045 12.045-4.3912 3.4933-14.275 8.9219-14.275 8.9219z" fill="url(#c)"/>
   <path d="m124.85 117.63s-2.5944 0.41834-4.9688 1l3.3125 7.625 5.625-1.0312-3.9688-7.5938zm-13.031 4.8438c-2.5453 1.7264-5.0208 3.574-7.8438 4.5625l1.0625 2.4375-8.875 1.625 4.625 10.562-8.8438 1.625 4.7188 10.75-8.5312 1.5625 4.625 10.562-8.8438 1.625 4.7188 10.75-1.75 0.3125 4.75 10.812 1.9375-0.34375-4.7188-10.719 8.9375-1.625-4.6562-10.594 8.8438-1.625-4.6875-10.719 8.5-1.5625-4.625-10.562 8.875-1.625-4.7188-10.75 8.875-1.625-2.375-5.4375zm-26.062 3.8438c-0.39872 6e-3 -0.7908 0.0279-1.1875 0.0625l2.5 5.7812-8.5 1.5625 4.625 10.562-8.8438 1.625 4.6875 10.75-1.75 0.3125 4.75 10.812 1.9375-0.34375-4.6875-10.719 8.9062-1.625-4.625-10.594 8.8125-1.625-4.6875-10.719 8.5-1.5625-1.4062-3.1875c-3.0144-0.44976-6.0458-1.1419-9.0312-1.0938zm37.5 0.4375-9.0938 1.6562 4.6562 10.594-8.875 1.625 4.6875 10.719-8.875 1.625 4.625 10.562-8.8438 1.625 4.7188 10.75-8.5312 1.5625 4.625 10.562-8.8438 1.625 2.0938 4.75c1.7762-1.0035 4.8328-2.7866 7.7812-4.6562l-0.65625-1.5 3.9688-0.71875c0.59893-0.42354 1.1708-0.83257 1.6562-1.2188 0.76936-0.61204 1.4993-1.2701 2.2188-1.9375l-3.7188-8.4688 8.5-1.5625-4.625-10.562 8.875-1.625-4.6875-10.75 8.875-1.625-4.625-10.562 8.8438-1.625-4.75-10.844zm-46.625 1.9375c-3.2974 1.3288-6.3931 2.808-8.1875 3.7188l1.0312 2.375-1.7812 0.34375 4.75 10.812 1.9688-0.375-4.7188-10.719 8.9062-1.625-1.9688-4.5312zm57.875 7.4375-6.4688 1.1875 4.75 10.812 7.2812-1.3125-5.5625-10.688zm-1.6875 12.5-9.0625 1.6562 4.625 10.594-8.875 1.625 3.875 8.8438c1.5731-1.548 3.172-3.0535 5.0312-4.2188 0.69219-0.43383 1.5027-0.86992 2.375-1.3125l-2.0625-4.7188 8.8438-1.625-4.75-10.844zm12.938 9.0625-8.125 1.5 1.3438 3.0938c4.1693-1.5914 7.75-2.75 7.75-2.75l-0.96875-1.8438zm-24.938 16.156-5.4688 1 1.375 3.1562c1.1909-1.2793 2.388-2.523 3.6562-3.7188 0.14827-0.13981 0.29047-0.29583 0.4375-0.4375z" fill="url(#b)"/>
   <path d="m67.287 132.82s10.654-5.6909 16.505-6.6914c6.3094-1.0788 12.945 2.3292 19.182 0.89219 5.4469-1.2549 9.5002-6.0334 14.721-8.0297 2.4256-0.92749 7.5836-1.7844 7.5836-1.7844l21.859 41.933s-12.698 4.0787-18.29 7.5836c-3.0344 1.9018-5.4242 4.6808-8.0297 7.1375-4.131 3.8952-7.6012 8.5098-12.045 12.045-4.3912 3.4933-14.275 8.9219-14.275 8.9219z" fill="url(#e)"/>
   <path d="m97.845 131.26 21.189 43.048s0.94344-2.4202 1.9006-3.2172c0.75941-0.63232 2.7834-1.0207 2.7834-1.0207l-20.52-39.925s-1.373 1.5646-2.3251 1.7762c-1.0085 0.22417-3.028-0.66097-3.028-0.66097z" fill="#666" filter="url(#a)" opacity=".5274"/>
   <path transform="matrix(1.1545 0 0 1.2808 -13.229 -34.745)" d="m82.304 128.15 21.189 43.048s0.94344-2.4202 1.9006-3.2172c0.75941-0.63232 2.7834-1.0207 2.7834-1.0207l-20.52-39.925s-1.373 1.5646-2.3251 1.7762c-1.0085 0.22417-3.028-0.66097-3.028-0.66097z" fill="#fff" filter="url(#a)" opacity=".5274"/>
  </g>
  <path transform="matrix(-.9719 .94767 .84743 1.0869 1620.7 504.81)" d="m364.77-1083.5h4.4609v127.58h-4.4609z" fill="url(#d)"/>
  <g transform="matrix(.54568 1.3065 -1.1683 .61023 602.3 -492.59)">
   <path d="m67.287 132.82s10.654-5.6909 16.505-6.6914c6.3094-1.0788 12.945 2.3292 19.182 0.89219 5.4469-1.2549 9.5002-6.0334 14.721-8.0297 2.4256-0.92749 7.5836-1.7844 7.5836-1.7844l21.859 41.933s-12.698 4.0787-18.29 7.5836c-3.0344 1.9018-5.4242 4.6808-8.0297 7.1375-4.131 3.8952-7.6012 8.5098-12.045 12.045-4.3912 3.4933-14.275 8.9219-14.275 8.9219z" filter="url(#f)" opacity=".3"/>
   <path d="m67.287 132.82s10.654-5.6909 16.505-6.6914c6.3094-1.0788 12.945 2.3292 19.182 0.89219 5.4469-1.2549 9.5002-6.0334 14.721-8.0297 2.4256-0.92749 7.5836-1.7844 7.5836-1.7844l21.859 41.933s-12.698 4.0787-18.29 7.5836c-3.0344 1.9018-5.4242 4.6808-8.0297 7.1375-4.131 3.8952-7.6012 8.5098-12.045 12.045-4.3912 3.4933-14.275 8.9219-14.275 8.9219z" fill="url(#c)"/>
   <path d="m124.85 117.63s-2.5944 0.41834-4.9688 1l3.3125 7.625 5.625-1.0312-3.9688-7.5938zm-13.031 4.8438c-2.5453 1.7264-5.0208 3.574-7.8438 4.5625l1.0625 2.4375-8.875 1.625 4.625 10.562-8.8438 1.625 4.7188 10.75-8.5312 1.5625 4.625 10.562-8.8438 1.625 4.7188 10.75-1.75 0.3125 4.75 10.812 1.9375-0.34375-4.7188-10.719 8.9375-1.625-4.6562-10.594 8.8438-1.625-4.6875-10.719 8.5-1.5625-4.625-10.562 8.875-1.625-4.7188-10.75 8.875-1.625-2.375-5.4375zm-26.062 3.8438c-0.39872 6e-3 -0.7908 0.0279-1.1875 0.0625l2.5 5.7812-8.5 1.5625 4.625 10.562-8.8438 1.625 4.6875 10.75-1.75 0.3125 4.75 10.812 1.9375-0.34375-4.6875-10.719 8.9062-1.625-4.625-10.594 8.8125-1.625-4.6875-10.719 8.5-1.5625-1.4062-3.1875c-3.0144-0.44976-6.0458-1.1419-9.0312-1.0938zm37.5 0.4375-9.0938 1.6562 4.6562 10.594-8.875 1.625 4.6875 10.719-8.875 1.625 4.625 10.562-8.8438 1.625 4.7188 10.75-8.5312 1.5625 4.625 10.562-8.8438 1.625 2.0938 4.75c1.7762-1.0035 4.8328-2.7866 7.7812-4.6562l-0.65625-1.5 3.9688-0.71875c0.59893-0.42354 1.1708-0.83257 1.6562-1.2188 0.76936-0.61204 1.4993-1.2701 2.2188-1.9375l-3.7188-8.4688 8.5-1.5625-4.625-10.562 8.875-1.625-4.6875-10.75 8.875-1.625-4.625-10.562 8.8438-1.625-4.75-10.844zm-46.625 1.9375c-3.2974 1.3288-6.3931 2.808-8.1875 3.7188l1.0312 2.375-1.7812 0.34375 4.75 10.812 1.9688-0.375-4.7188-10.719 8.9062-1.625-1.9688-4.5312zm57.875 7.4375-6.4688 1.1875 4.75 10.812 7.2812-1.3125-5.5625-10.688zm-1.6875 12.5-9.0625 1.6562 4.625 10.594-8.875 1.625 3.875 8.8438c1.5731-1.548 3.172-3.0535 5.0312-4.2188 0.69219-0.43383 1.5027-0.86992 2.375-1.3125l-2.0625-4.7188 8.8438-1.625-4.75-10.844zm12.938 9.0625-8.125 1.5 1.3438 3.0938c4.1693-1.5914 7.75-2.75 7.75-2.75l-0.96875-1.8438zm-24.938 16.156-5.4688 1 1.375 3.1562c1.1909-1.2793 2.388-2.523 3.6562-3.7188 0.14827-0.13981 0.29047-0.29583 0.4375-0.4375z" fill="url(#b)"/>
   <path d="m67.287 132.82s10.654-5.6909 16.505-6.6914c6.3094-1.0788 12.945 2.3292 19.182 0.89219 5.4469-1.2549 9.5002-6.0334 14.721-8.0297 2.4256-0.92749 7.5836-1.7844 7.5836-1.7844l21.859 41.933s-12.698 4.0787-18.29 7.5836c-3.0344 1.9018-5.4242 4.6808-8.0297 7.1375-4.131 3.8952-7.6012 8.5098-12.045 12.045-4.3912 3.4933-14.275 8.9219-14.275 8.9219z" fill="url(#e)"/>
   <path d="m97.845 131.26 21.189 43.048s0.94344-2.4202 1.9006-3.2172c0.75941-0.63232 2.7834-1.0207 2.7834-1.0207l-20.52-39.925s-1.373 1.5646-2.3251 1.7762c-1.0085 0.22417-3.028-0.66097-3.028-0.66097z" fill="#666" filter="url(#a)" opacity=".5274"/>
   <path transform="matrix(1.1545 0 0 1.2808 -13.229 -34.745)" d="m82.304 128.15 21.189 43.048s0.94344-2.4202 1.9006-3.2172c0.75941-0.63232 2.7834-1.0207 2.7834-1.0207l-20.52-39.925s-1.373 1.5646-2.3251 1.7762c-1.0085 0.22417-3.028-0.66097-3.028-0.66097z" fill="#fff" filter="url(#a)" opacity=".5274"/>
  </g>
  <path transform="matrix(.9719 .94767 -.84743 1.0869 -791.05 503.55)" d="m364.77-1083.5h4.4609v127.58h-4.4609z" fill="url(#d)"/>
 </g>
</svg>
