<?xml version="1.0" encoding="UTF-8"?>
<svg viewBox="0 0 640 480" xmlns="http://www.w3.org/2000/svg">
 <g fill="#231f20">
  <path d="m200.48 99.941c3.711 0 6.711-2.984 6.711-6.695 0-3.688-3-6.688-6.711-6.688-3.688 0-6.688 3-6.688 6.688 0.001007 3.711 3.001 6.695 6.688 6.695z"/>
  <path d="m191.43 164.88c0 2.078 1.656 3.758 3.734 3.758 2.07 0 3.758-1.68 3.758-3.758v-31.492h3.148v31.492c0 2.078 1.688 3.758 3.758 3.758 2.078 0 3.742-1.68 3.742-3.758l0.023-54.297h3.125v20.016c0 4.031 5.242 4.031 5.242 0v-20.453c0-4.445-3.461-8.789-8.664-8.789l-17.75-0.023c-4.758 0-8.57 3.875-8.57 8.688v20.578c0 3.984 5.273 3.984 5.273 0v-20.017h3.18v54.297h9.92e-4z"/>
 </g>
</svg>
