<svg id="svg439" xmlns="http://www.w3.org/2000/svg" viewBox="0 0 393.82 618.69"><defs><style>.cls-1{opacity:0.3;}.cls-2{fill:#ed1e24;}.cls-3{fill:#e1e0df;}.cls-4{fill:#f3f3f3;}.cls-5{fill:#ededed;}.cls-6{fill:#cdccca;}.cls-7{fill:#e8e8e7;}.cls-8{fill:#100f0d;}</style></defs><title>Stork_transparent</title><g id="layer1" class="cls-1"><path id="path18" class="cls-2" d="M332.73,469.28l6.88,85.57,0,.28,0,.27L328.32,697.64l13.5,13.93a3.47,3.47,0,1,1-5,4.84l-9.25-9.54-1.25,15.75a3.48,3.48,0,1,1-6.93-.54l.74-9.32-37,11.68a3.48,3.48,0,1,1-2.07-6.64l4.84-1.53A3.48,3.48,0,0,1,288,710l16.8.28,15.9-5,11.91-150.15-6.86-85.31a3.48,3.48,0,1,1,6.94-.54ZM232,713.05,215.89,716a3.47,3.47,0,0,0,1.22,6.84l.93-.18-3.27,2.26a3.48,3.48,0,0,0,3.95,5.72l31.9-22,3,17a3.48,3.48,0,1,0,6.85-1.2l-3.77-21.52,1.91-5.64,11.59,21.53a3.47,3.47,0,1,0,6.12-3.29L261.65,688.3,306,557.23l.19-.56v-.62l-2-98.37a3.47,3.47,0,1,0-6.93.14l1.95,97.74L250.18,700.47,232,713.05" transform="translate(-105.08 -112.54)"/><path id="path20" class="cls-3" d="M240,147.71c3.87,39.78-34.52,101.69,11.6,119.33q-3.21,16.81-6.44,33.63l-54.76-30.38c-.48-30.4,15.26-68.19-1.43-91.22l51-31.36" transform="translate(-105.08 -112.54)"/><path id="path22" class="cls-4" d="M482.2,510.3c-15.07-240.33-209-253.45-291.85-240,9.21,159,63.86,217.46,291.85,240" transform="translate(-105.08 -112.54)"/><path id="path24" class="cls-5" d="M481.9,506.36c-4-56.25-18-99.86-38-133.47-52.74-55.78-128.66-65.27-171-58.39-5.32,117.78,43.44,173.44,209,191.86" transform="translate(-105.08 -112.54)"/><path id="path26" class="cls-3" d="M482.2,510.3a370.5,370.5,0,0,0-10.72-69.87c-84.86-9.5-247.36,6.58-281.13-170.14,9.21,159,63.86,217.46,291.85,240" transform="translate(-105.08 -112.54)"/><path id="path28" class="cls-6" d="M481.93,506.37a366.68,366.68,0,0,0-10.45-65.94C422,434.89,346.17,438,284.82,406.62c23.74,59,78.1,86.51,197.11,99.75" transform="translate(-105.08 -112.54)"/><path id="path30" class="cls-7" d="M498.9,500.37c-11.67-186.13-161.84-196.28-226-185.87,7.14,123.1,49.46,168.4,226,185.87" transform="translate(-105.08 -112.54)"/><path id="path32" class="cls-8" d="M498.9,500.37c-7.8-124.46-77.54-170.23-142.08-183.79,44.49,23.55,67,54.57,78.06,98.77C394,396.56,361,391.59,309.24,399.16c78.4,12.5,144.4,42.33,189.66,101.21" transform="translate(-105.08 -112.54)"/><path id="path34" class="cls-4" d="M204.83,182.88A35.17,35.17,0,1,1,240,147.71a35.23,35.23,0,0,1-35.12,35.17" transform="translate(-105.08 -112.54)"/><path id="path36" class="cls-2" d="M170.54,155.39l-65.46,90.68,80.85-68.71a26.6,26.6,0,0,1,.22-16.37c-6.89.58-12.33-.94-15.61-5.6" transform="translate(-105.08 -112.54)"/><path id="path38" class="cls-8" d="M183.81,157.86c5.14-15.09,10.3-19.92,24.45-17.71-4.09,1.37-4.63,6.84-8.27,9.53-4.29,3.18-11.66,3.8-16.18,8.18" transform="translate(-105.08 -112.54)"/></g></svg>